<svg xmlns="http://www.w3.org/2000/svg" xmlns:xlink="http://www.w3.org/1999/xlink" version="1.1" x="0px" y="0px" viewBox="0 0 100 125" style="enable-background:new 0 0 100 100;" xml:space="preserve"><style type="text/css">

	.st0{fill:#141412;}

</style><path class="st0" d="M90.064,7.806C71.309,7.852,52.552,7.9,33.797,7.871c-7.926-0.012-15.853-0.039-23.779-0.036  c-0.161,0.007,0.098-0.011,0.032-0.004c-2.846,0.233-2.209,3.457-2.212,5.518c-0.005,3.177-0.01,6.354-0.015,9.531  C7.814,29.306,7.806,35.731,7.8,42.157C7.789,55.109,7.781,68.059,7.781,81.01c0,2.964-0.122,5.954,0.008,8.914  c0.049,1.123,0.67,2.057,1.848,2.252c1.618,0.268,3.453,0.035,5.093,0.034c6.62-0.003,13.239-0.007,19.858-0.011  c12.868-0.007,25.737-0.002,38.606-0.022c5.617-0.009,11.237,0.031,16.854-0.025c-0.24,0.016-0.003-0.002-0.027-0.002  c1.76-0.159,2.141-1.514,2.139-3.065c-0.005-3.173-0.01-6.345-0.015-9.517c-0.01-6.162-0.019-12.324-0.027-18.485  c-0.016-11.41,0.018-22.819,0.031-34.228c0.006-5.636,0.008-11.273,0.028-16.91c-0.001-0.042,0.012,0.238,0.005,0.103  c-0.039-0.38-0.064-0.723-0.239-1.061c-0.206-0.402-0.531-0.743-0.937-0.946C90.897,7.985,90.077,7.737,90.064,7.806z M90.064,5.083  c2.046,0.148,3.979,1.259,4.602,3.339c0.541,1.811,0.262,3.902,0.265,5.755c0.007,4.793,0.015,9.587,0.021,14.38  c0.013,11.548,0.044,23.097,0.026,34.645c-0.011,6.233-0.021,12.466-0.029,18.698c-0.004,2.672-0.009,5.343-0.012,8.015  c-0.003,2.376-1.581,4.333-3.876,4.883c-1.581,0.379-3.426,0.109-5.02,0.106c-3.231-0.005-6.463-0.01-9.694-0.015  c-6.37-0.011-12.741-0.011-19.111-0.015c-13.106-0.007-26.212-0.013-39.318-0.02c-1.594-0.001-3.188-0.002-4.782-0.002  c-1.585-0.001-3.361,0.231-4.878-0.322c-1.823-0.665-2.984-2.408-3.104-4.307c-0.082-1.283-0.01-2.594-0.01-3.879  c0-3.194,0-6.391,0-9.586c0-12.935-0.012-25.868-0.023-38.803c-0.006-6.435-0.016-12.869-0.026-19.304  C5.09,15.632,4.87,12.521,5.117,9.51c0.181-2.205,1.965-4.168,4.204-4.399c1.987-0.206,4.032-0.062,6.027-0.064  c3.15-0.005,6.3-0.01,9.45-0.014C30.924,5.023,37.05,5.015,43.175,5.02C53.588,5.029,64,5.039,74.412,5.047  C79.629,5.052,84.847,5.072,90.064,5.083z M50,57.5c-4.143,0-7.5-3.357-7.5-7.5c0-4.143,3.357-7.5,7.5-7.5  c4.143,0,7.5,3.357,7.5,7.5C57.5,54.143,54.143,57.5,50,57.5z"/></svg>